<?xml version="1.0" standalone="no"?>
<!DOCTYPE svg PUBLIC "-//W3C//DTD SVG 20010904//EN"
 "http://www.w3.org/TR/2001/REC-SVG-20010904/DTD/svg10.dtd">
<svg version="1.0" xmlns="http://www.w3.org/2000/svg"
 width="400pt" height="400pt" viewBox="0 0 400 400"
 preserveAspectRatio="xMidYMid meet">
<metadata>
Created by potrace 1.8, written by Peter Selinger 2001-2007
</metadata>
<g transform="translate(0,400) scale(0.080000,-0.080000)"
fill="#000000" stroke="none">
<path d="M160 2490 l0 -2320 2320 0 2320 0 0 2320 0 2320 -2320 0 -2320 0 0
-2320z m3245 538 c0 -491 -4 -899 -8 -905 -5 -8 -3 -13 5 -13 9 0 10 -2 1 -8
-6 -4 -14 -27 -18 -52 -9 -65 -53 -195 -90 -272 -101 -204 -282 -383 -490
-482 -75 -36 -175 -70 -237 -81 -16 -3 -43 -8 -60 -11 -50 -9 -228 -11 -273
-3 -143 25 -176 32 -230 51 -33 12 -65 25 -71 30 -6 4 -14 5 -17 1 -4 -3 -7
-2 -7 4 0 6 -11 14 -24 17 -52 13 -221 137 -286 210 -19 22 -47 52 -62 67 -16
15 -28 29 -28 32 0 15 -89 135 -95 129 -5 -4 -5 -1 -1 6 4 7 -4 36 -17 65 -29
61 -53 130 -68 195 -6 26 -13 56 -16 67 -10 39 -11 260 -2 310 5 28 12 64 15
80 17 105 75 241 150 355 66 99 130 171 229 255 32 28 66 57 75 65 9 8 36 31
60 51 25 20 63 53 85 72 22 20 45 40 50 44 6 5 96 80 200 167 105 88 199 166
209 175 18 15 19 15 14 -12 -3 -15 -2 -30 2 -32 4 -3 4 -22 0 -43 -4 -21 -3
-48 1 -60 5 -12 5 -22 1 -22 -4 0 -6 -35 -4 -77 5 -149 0 -192 -21 -204 -9 -6
-25 -18 -35 -28 -9 -9 -38 -34 -64 -55 l-47 -38 -3 116 -3 116 -30 -28 c-16
-15 -57 -50 -90 -77 -33 -28 -62 -52 -65 -55 -6 -6 -129 -112 -174 -150 -184
-155 -272 -264 -335 -415 -100 -240 -84 -551 39 -770 128 -227 365 -400 605
-441 17 -3 46 -9 65 -13 41 -9 211 -7 255 3 17 3 39 8 50 10 94 18 234 79 318
139 144 103 246 237 328 432 11 25 35 126 45 185 9 53 12 1420 3 1426 -3 2
-20 -9 -37 -24 -18 -15 -46 -39 -64 -54 -108 -90 -190 -161 -216 -185 -13 -13
-25 -23 -28 -23 -3 0 -15 -10 -28 -22 -13 -13 -39 -35 -58 -50 -19 -15 -46
-37 -60 -50 -62 -56 -109 -97 -147 -127 -23 -18 -38 -38 -35 -43 4 -7 2 -8 -4
-4 -7 4 -23 -4 -38 -19 -14 -14 -36 -33 -50 -41 -13 -9 -21 -21 -17 -27 3 -5
2 -7 -4 -4 -5 3 -20 -4 -34 -16 -13 -12 -55 -49 -94 -82 -38 -33 -72 -62 -75
-65 -3 -3 -27 -24 -55 -45 -27 -22 -56 -47 -65 -55 -9 -8 -43 -37 -76 -65 -96
-81 -136 -126 -131 -147 3 -10 2 -20 -3 -23 -14 -8 -8 -59 11 -97 27 -52 71
-80 132 -84 57 -3 89 10 128 53 34 36 38 56 40 186 l1 106 32 25 c17 13 51 42
75 65 25 22 47 38 49 36 10 -10 7 -328 -3 -379 -29 -142 -160 -255 -300 -258
-52 -1 -156 24 -183 45 -48 37 -106 105 -125 145 -30 67 -30 198 0 264 19 42
84 116 154 173 198 164 327 280 322 288 -4 6 -1 7 6 2 7 -4 20 1 30 11 10 11
40 37 66 59 27 22 62 53 79 68 17 15 50 42 73 60 23 18 40 38 38 45 -3 7 0 10
5 7 9 -6 83 53 280 225 30 26 87 74 125 106 39 32 72 61 75 64 3 3 50 43 105
90 55 47 111 94 125 106 14 12 48 41 75 64 28 24 52 47 53 51 2 5 7 9 11 9 3
0 6 -402 6 -892z"/>
</g>
</svg>
